<?xml version="1.0" encoding="UTF-8" standalone="no"?>
<svg
   version="1.1"
   id="Layer_1"
   x="0px"
   y="0px"
   viewBox="0 0 2251.03 477.25671"
   xml:space="preserve"
   sodipodi:docname="clipped.svg"
   width="2251.03"
   height="477.25671"
   inkscape:version="1.4.2 (ebf0e940d0, 2025-05-08)"
   xmlns:inkscape="http://www.inkscape.org/namespaces/inkscape"
   xmlns:sodipodi="http://sodipodi.sourceforge.net/DTD/sodipodi-0.dtd"
   xmlns="http://www.w3.org/2000/svg"
   xmlns:svg="http://www.w3.org/2000/svg"><defs
   id="defs17" /><sodipodi:namedview
   id="namedview17"
   pagecolor="#505050"
   bordercolor="#ffffff"
   borderopacity="1"
   inkscape:showpageshadow="0"
   inkscape:pageopacity="0"
   inkscape:pagecheckerboard="1"
   inkscape:deskcolor="#505050"
   inkscape:zoom="0.071327844"
   inkscape:cx="665.93909"
   inkscape:cy="497.70185"
   inkscape:window-width="958"
   inkscape:window-height="1078"
   inkscape:window-x="0"
   inkscape:window-y="0"
   inkscape:window-maximized="1"
   inkscape:current-layer="Layer_1" />
<style
   type="text/css"
   id="style1">
	.st0{fill:#000000;}
	@media (prefers-color-scheme: dark) {
		.st0{fill:#FFFFFF;}
	}
</style>
<g
   id="g8"
   transform="translate(-154.49,-481.37329)">
	<g
   id="g7">
		<path
   class="st0"
   d="m 859.47,620.26 c -22.53,-16.11 -50.67,-24.28 -83.64,-24.28 -37.87,0 -69.99,12.42 -95.48,36.92 -25.46,24.48 -38.37,57.43 -38.37,97.94 v 4.04 c 0,41.17 12.56,73.77 37.33,96.9 24.82,23.18 57.12,34.93 96.01,34.93 36.92,0 66.61,-9.56 88.25,-28.42 20.98,-18.27 32.85,-42.7 35.31,-72.63 h -61.24 c -2.07,16.01 -8.38,28.55 -18.8,37.29 -10.84,9.1 -24.3,13.71 -39.99,13.71 -21.22,0 -37.93,-7.19 -49.65,-21.36 -11.61,-14.03 -17.49,-34.7 -17.49,-61.44 v -4.04 c 0,-25.39 5.97,-45.47 17.75,-59.67 11.89,-14.34 28,-21.61 47.88,-21.61 31.18,0 49.88,15.12 55.62,44.95 h 64.35 c -3.38,-33.04 -16.1,-57.67 -37.84,-73.23 z"
   id="path1" />
		<path
   class="st0"
   d="M 1158.23,861.16 V 691.45 c 0,-31.76 -9.02,-55.85 -26.81,-71.6 -17.88,-15.84 -45.22,-23.86 -81.29,-23.86 -33.33,0 -60.88,7.49 -81.89,22.27 -20.16,14.17 -31.62,35.4 -34.08,63.12 h 64.33 c 4.11,-24.8 19.95,-37.37 47.1,-37.37 16.53,0 28.4,4.31 35.27,12.8 6.74,8.34 10.15,21.19 10.15,38.19 v 13.1 h -32.29 c -45.1,0 -79.32,7.01 -101.71,20.84 -22.31,13.78 -33.15,33.9 -33.15,61.5 0,25.34 8.01,44.56 23.8,57.13 15.96,12.71 36.84,19.15 62.07,19.15 34.33,0 60.49,-12.22 77.76,-36.33 l 4.53,-6.33 v 37.1 z m -67.21,-89.92 c 0,15.22 -5.76,27.44 -17.12,36.31 -11.17,8.73 -25.45,13.15 -42.44,13.15 -27.13,0 -40.88,-11.54 -40.88,-34.31 0,-14.42 6.15,-24.85 18.29,-31.01 11.58,-5.88 28.87,-8.86 51.38,-8.86 h 30.78 v 24.72 z"
   id="path2" />
		<path
   class="st0"
   d="m 1240.86,845.71 c 13.92,13.6 34.74,20.5 61.88,20.5 15.12,0 29.22,-2.14 41.94,-6.36 V 808.7 c -7.52,2.61 -16,3.92 -25.28,3.92 -20.8,0 -31.79,-11.69 -31.79,-33.81 V 649.06 h 55.55 v -47.02 h -55.55 v -57.06 h -67.72 v 57.06 h -33.83 v 47.02 h 33.83 v 136.32 c 0,26.45 7.06,46.74 20.97,60.33 z"
   id="path3" />
		<path
   class="st0"
   d="m 1597.68,929.15 c 23.53,-19.45 35.63,-48.46 35.96,-86.22 V 602.04 h -67.72 v 46.37 l -4.67,-8.25 c -16.61,-29.32 -44.09,-44.18 -81.66,-44.18 -32.11,0 -59.35,11.96 -80.98,35.55 -21.68,23.65 -32.67,54.18 -32.67,90.73 v 3.54 c 0,37.54 10.81,67.88 32.13,90.18 21.28,22.27 48.37,33.57 80.51,33.57 17.96,0 34.51,-4.63 49.18,-13.76 14.71,-9.15 25.97,-20.57 33.48,-33.95 l 4.68,-8.34 v 49.46 c 0,44.55 -23.27,67.14 -69.16,67.14 -34.31,0 -54.69,-12.91 -60.6,-38.38 h -67.82 c 4.34,28.38 16.93,50.03 37.44,64.38 21.35,14.95 51.96,22.53 90.98,22.53 43.29,-0.01 77.25,-9.93 100.92,-29.48 z m -48.33,-149.9 c -12.39,13.44 -28.89,20.25 -49.06,20.25 -19.19,0 -34.94,-6.83 -46.82,-20.29 -11.81,-13.36 -17.8,-31.33 -17.8,-53.42 v -4.04 c 0,-22.72 5.81,-41.11 17.26,-54.64 11.56,-13.66 28,-20.58 48.87,-20.58 20.51,0 36.86,6.74 48.59,20.04 11.64,13.21 17.54,31.61 17.54,54.68 v 3.54 c 0.01,22.75 -6.25,41.08 -18.58,54.46 z"
   id="path4" />
		<path
   class="st0"
   d="m 1780.18,677.07 c 14.25,-10.56 35.39,-15.91 62.87,-15.91 v 0 -63.11 c -18.4,0.52 -34.38,5.04 -47.54,13.45 -13.75,8.79 -24.87,22.11 -33.04,39.6 l -4.76,10.2 v -59.26 h -68.22 v 259.12 h 68.22 V 731.35 c 0,-24.97 7.56,-43.23 22.47,-54.28 z"
   id="path5" />
		<path
   class="st0"
   d="M 2097.52,861.16 V 691.45 c 0,-31.76 -9.02,-55.85 -26.81,-71.6 -17.88,-15.84 -45.23,-23.86 -81.29,-23.86 -33.32,0 -60.88,7.49 -81.89,22.27 -20.16,14.17 -31.62,35.4 -34.09,63.12 h 64.33 c 4.11,-24.8 19.95,-37.37 47.1,-37.37 16.53,0 28.4,4.31 35.27,12.8 6.74,8.34 10.15,21.19 10.15,38.19 v 13.1 h -32.3 c -45.1,0 -79.32,7.01 -101.71,20.84 -22.31,13.78 -33.15,33.9 -33.15,61.5 0,25.34 8.01,44.56 23.8,57.13 15.96,12.71 36.84,19.15 62.07,19.15 34.33,0 60.49,-12.22 77.76,-36.33 l 4.53,-6.33 v 37.1 z m -67.21,-89.92 c 0,15.22 -5.76,27.44 -17.12,36.31 -11.17,8.73 -25.46,13.15 -42.44,13.15 -27.13,0 -40.88,-11.54 -40.88,-34.31 0,-14.42 6.15,-24.85 18.29,-31.01 11.58,-5.88 28.87,-8.86 51.38,-8.86 h 30.78 v 24.72 z"
   id="path6" />
		<path
   class="st0"
   d="m 2405.52,861.16 v -378.8 h -67.72 v 166.39 l -4.7,-8.62 c -15.95,-29.29 -43.25,-44.15 -81.13,-44.15 -33.09,0 -60.58,12.2 -81.7,36.27 -21.2,24.16 -31.95,57.5 -31.95,99.1 v 4.04 c 0,41.58 10.65,74.23 31.66,97.03 20.94,22.75 48.02,34.29 80.48,34.29 17.95,0 34.68,-4.63 49.71,-13.78 15,-9.13 26.07,-20.68 32.9,-34.33 l 4.74,-9.47 v 52.02 h 67.71 z m -83.99,-67.57 c -12.23,13.97 -28.83,21.05 -49.35,21.05 -19.55,0 -35.31,-7.01 -46.86,-20.84 -11.44,-13.7 -17.25,-33.86 -17.25,-59.93 v -4.04 c 0,-26.72 5.71,-47.38 16.96,-61.41 11.38,-14.19 27.92,-21.39 49.17,-21.39 20.89,0 37.26,7.11 48.65,21.12 11.26,13.87 16.97,34.28 16.97,60.66 v 4.04 c 0,26.44 -6.16,46.87 -18.29,60.74 z"
   id="path7" />
	</g>
	<path
   class="st0"
   d="M 312.87,604.51 187.65,487.16 c -3.8,-3.8 -8.66,-5.78 -13.66,-5.78 -2.51,0 -5.06,0.5 -7.53,1.52 -7.39,3.06 -11.97,9.93 -11.97,17.92 v 203.11 c 0,89.73 85.4,162.73 190.38,162.73 104.98,0 190.38,-73 190.38,-162.73 V 500.82 c 0,-7.99 -4.59,-14.86 -11.97,-17.92 -7.38,-3.06 -15.48,-1.45 -21.14,4.2 l -0.06,0.06 -125.23,117.35 c -17.94,16.81 -46.04,16.81 -63.98,0 z"
   id="path8" />
</g>

</svg>
