<?xml version="1.0" encoding="utf-8"?>
<!-- Generator: Adobe Illustrator 27.0.0, SVG Export Plug-In . SVG Version: 6.00 Build 0)  -->
<svg version="1.1" id="Layer_1" xmlns="http://www.w3.org/2000/svg" xmlns:xlink="http://www.w3.org/1999/xlink" x="0px" y="0px"
	 viewBox="0 0 2560 1440" style="enable-background:new 0 0 2560 1440;" xml:space="preserve">
<style type="text/css">
	.st0{fill:#FFFFFF;}
</style>
<g>
	<g>
		<path class="st0" d="M3498.29,620.26c-22.53-16.11-50.67-24.28-83.64-24.28c-37.87,0-69.99,12.42-95.48,36.92
			c-25.46,24.48-38.37,57.43-38.37,97.94v4.04c0,41.17,12.56,73.77,37.33,96.9c24.82,23.18,57.12,34.93,96.01,34.93
			c36.92,0,66.61-9.56,88.25-28.42c20.98-18.27,32.85-42.7,35.31-72.63h-61.24c-2.07,16.01-8.38,28.55-18.8,37.29
			c-10.84,9.1-24.3,13.71-39.99,13.71c-21.22,0-37.93-7.19-49.65-21.36c-11.61-14.03-17.49-34.7-17.49-61.44v-4.04
			c0-25.39,5.97-45.47,17.75-59.67c11.89-14.34,28-21.61,47.88-21.61c31.18,0,49.88,15.12,55.62,44.95h64.35
			C3532.76,660.45,3520.04,635.82,3498.29,620.26z"/>
		<path class="st0" d="M3797.06,861.16V691.45c0-31.76-9.02-55.85-26.81-71.6c-17.88-15.84-45.22-23.86-81.29-23.86
			c-33.33,0-60.88,7.49-81.89,22.27c-20.16,14.17-31.62,35.4-34.08,63.12h64.33c4.11-24.8,19.95-37.37,47.1-37.37
			c16.53,0,28.4,4.31,35.27,12.8c6.74,8.34,10.15,21.19,10.15,38.19v13.1h-32.29c-45.1,0-79.32,7.01-101.71,20.84
			c-22.31,13.78-33.15,33.9-33.15,61.5c0,25.34,8.01,44.56,23.8,57.13c15.96,12.71,36.84,19.15,62.07,19.15
			c34.33,0,60.49-12.22,77.76-36.33l4.53-6.33v37.1H3797.06z M3729.85,771.24c0,15.22-5.76,27.44-17.12,36.31
			c-11.17,8.73-25.45,13.15-42.44,13.15c-27.13,0-40.88-11.54-40.88-34.31c0-14.42,6.15-24.85,18.29-31.01
			c11.58-5.88,28.87-8.86,51.38-8.86h30.78V771.24z"/>
		<path class="st0" d="M3879.68,845.71c13.92,13.6,34.74,20.5,61.88,20.5c15.12,0,29.22-2.14,41.94-6.36V808.7
			c-7.52,2.61-16,3.92-25.28,3.92c-20.8,0-31.79-11.69-31.79-33.81V649.06h55.55v-47.02h-55.55v-57.06h-67.72v57.06h-33.83v47.02
			h33.83v136.32C3858.72,811.83,3865.77,832.12,3879.68,845.71z"/>
		<path class="st0" d="M4236.51,929.15c23.53-19.45,35.63-48.46,35.96-86.22V602.04h-67.72v46.37l-4.67-8.25
			c-16.61-29.32-44.09-44.18-81.66-44.18c-32.11,0-59.35,11.96-80.98,35.55c-21.68,23.65-32.67,54.18-32.67,90.73v3.54
			c0,37.54,10.81,67.88,32.13,90.18c21.28,22.27,48.37,33.57,80.51,33.57c17.96,0,34.51-4.63,49.18-13.76
			c14.71-9.15,25.97-20.57,33.48-33.95l4.68-8.34v49.46c0,44.55-23.27,67.14-69.16,67.14c-34.31,0-54.69-12.91-60.6-38.38h-67.82
			c4.34,28.38,16.93,50.03,37.44,64.38c21.35,14.95,51.96,22.53,90.98,22.53C4178.88,958.62,4212.83,948.7,4236.51,929.15z
			 M4188.18,779.25c-12.39,13.44-28.89,20.25-49.06,20.25c-19.19,0-34.94-6.83-46.82-20.29c-11.81-13.36-17.8-31.33-17.8-53.42
			v-4.04c0-22.72,5.81-41.11,17.26-54.64c11.56-13.66,28-20.58,48.87-20.58c20.51,0,36.86,6.74,48.59,20.04
			c11.64,13.21,17.54,31.61,17.54,54.68v3.54C4206.77,747.54,4200.51,765.87,4188.18,779.25z"/>
		<path class="st0" d="M4419.01,677.07c14.25-10.56,35.39-15.91,62.87-15.91h0v-63.11c-18.4,0.52-34.38,5.04-47.54,13.45
			c-13.75,8.79-24.87,22.11-33.04,39.6l-4.76,10.2v-59.26h-68.22v259.12h68.22V731.35C4396.54,706.38,4404.1,688.12,4419.01,677.07z
			"/>
		<path class="st0" d="M4736.35,861.16V691.45c0-31.76-9.02-55.85-26.81-71.6c-17.88-15.84-45.23-23.86-81.29-23.86
			c-33.32,0-60.88,7.49-81.89,22.27c-20.16,14.17-31.62,35.4-34.09,63.12h64.33c4.11-24.8,19.95-37.37,47.1-37.37
			c16.53,0,28.4,4.31,35.27,12.8c6.74,8.34,10.15,21.19,10.15,38.19v13.1h-32.3c-45.1,0-79.32,7.01-101.71,20.84
			c-22.31,13.78-33.15,33.9-33.15,61.5c0,25.34,8.01,44.56,23.8,57.13c15.96,12.71,36.84,19.15,62.07,19.15
			c34.33,0,60.49-12.22,77.76-36.33l4.53-6.33v37.1H4736.35z M4669.14,771.24c0,15.22-5.76,27.44-17.12,36.31
			c-11.17,8.73-25.46,13.15-42.44,13.15c-27.13,0-40.88-11.54-40.88-34.31c0-14.42,6.15-24.85,18.29-31.01
			c11.58-5.88,28.87-8.86,51.38-8.86h30.78V771.24z"/>
		<path class="st0" d="M5044.35,861.16v-378.8h-67.72v166.39l-4.7-8.62c-15.95-29.29-43.25-44.15-81.13-44.15
			c-33.09,0-60.58,12.2-81.7,36.27c-21.2,24.16-31.95,57.5-31.95,99.1v4.04c0,41.58,10.65,74.23,31.66,97.03
			c20.94,22.75,48.02,34.29,80.48,34.29c17.95,0,34.68-4.63,49.71-13.78c15-9.13,26.07-20.68,32.9-34.33l4.74-9.47v52.02H5044.35z
			 M4960.35,793.59c-12.23,13.97-28.83,21.05-49.35,21.05c-19.55,0-35.31-7.01-46.86-20.84c-11.44-13.7-17.25-33.86-17.25-59.93
			v-4.04c0-26.72,5.71-47.38,16.96-61.41c11.38-14.19,27.92-21.39,49.17-21.39c20.89,0,37.26,7.11,48.65,21.12
			c11.26,13.87,16.97,34.28,16.97,60.66v4.04C4978.65,759.29,4972.49,779.72,4960.35,793.59z"/>
	</g>
	<path class="st0" d="M2951.7,604.51l-125.22-117.35c-3.8-3.8-8.66-5.78-13.66-5.78c-2.51,0-5.06,0.5-7.53,1.52
		c-7.39,3.06-11.97,9.93-11.97,17.92v203.11c0,89.73,85.4,162.73,190.38,162.73s190.38-73,190.38-162.73V500.82
		c0-7.99-4.59-14.86-11.97-17.92c-7.38-3.06-15.48-1.45-21.14,4.2l-0.06,0.06l-125.22,117.35
		C2997.74,621.32,2969.64,621.32,2951.7,604.51z"/>
</g>
<g>
	<g>
		<path d="M775.32,869.21c-39.73,0-72.3-11.87-97.72-35.6c-25.42-23.73-38.13-56.64-38.13-98.73v-4.04
			c0-41.41,13.04-74.65,39.14-99.74c26.09-25.08,58.49-37.62,97.21-37.62c33.66,0,62.03,8.25,85.09,24.75
			c23.06,16.5,36.11,42.42,39.14,77.77h-69.18c-5.05-29.96-22.9-44.95-53.53-44.95c-19.19,0-34.51,6.9-45.96,20.71
			c-11.45,13.81-17.17,33.17-17.17,58.08v4.04c0,26.26,5.63,46.21,16.92,59.84c11.28,13.63,27.18,20.45,47.72,20.45
			c15.15,0,27.94-4.37,38.38-13.13c10.43-8.75,16.49-21.38,18.18-37.88h66.15c-2.02,31.99-14.14,57.66-36.36,77.01
			C842.99,859.54,813.03,869.21,775.32,869.21z"/>
		<path d="M1009.74,869.21c-25.93,0-47.14-6.56-63.63-19.69c-16.5-13.13-24.75-32.83-24.75-59.08c0-56.56,45.78-84.84,137.36-84.84
			h29.79v-10.6c0-16.49-3.2-28.7-9.59-36.61c-6.4-7.91-17.51-11.87-33.33-11.87c-26.6,0-41.58,12.46-44.95,37.37h-69.18
			c2.02-29.96,13.8-52.52,35.35-67.67c21.54-15.15,49.32-22.72,83.33-22.72c73.73,0,110.59,32.66,110.59,97.97v172.21h-71.21v-31.82
			C1071.68,856.76,1045.09,869.21,1009.74,869.21z M1031.45,818.2c16.49,0,30.13-4.21,40.9-12.62
			c10.77-8.41,16.16-19.86,16.16-34.34v-22.22h-28.28c-22.22,0-38.97,2.86-50.25,8.58c-11.28,5.73-16.92,15.32-16.92,28.79
			C993.07,807.6,1005.86,818.2,1031.45,818.2z"/>
		<path d="M1302.74,868.7c-27.95,0-49.16-7.07-63.63-21.21c-14.48-14.14-21.71-34.84-21.71-62.12V651.56h-33.83v-52.02h33.83v-57.06
			h72.72v57.06h55.55v52.02h-55.55v127.26c0,20.88,9.76,31.31,29.29,31.31c10.43,0,19.7-1.68,27.78-5.05v56.56
			C1333.71,866.35,1318.9,868.7,1302.74,868.7z"/>
		<path d="M1496.76,961.12c-79.46,0-123.22-30.64-131.3-91.91h72.72c5.05,25.58,24.57,38.38,58.58,38.38
			c44.44,0,66.66-21.55,66.66-64.64v-39.89c-7.75,13.81-19.19,25.42-34.34,34.84c-15.15,9.43-31.99,14.14-50.5,14.14
			c-33,0-60.43-11.44-82.32-34.34c-21.89-22.89-32.83-53.53-32.83-91.91v-3.54c0-37.37,11.11-68.17,33.33-92.42
			c22.22-24.24,49.82-36.36,82.82-36.36c38.71,0,66.66,15.15,83.83,45.45v-39.39h72.72v243.41c-0.34,38.71-12.62,68.09-36.87,88.12
			C1575.03,951.1,1540.86,961.12,1496.76,961.12z M1500.29,796.99c19.52,0,35.26-6.48,47.22-19.44
			c11.95-12.96,17.93-30.55,17.93-52.77v-3.54c0-22.55-5.64-40.23-16.92-53.02c-11.28-12.79-26.85-19.19-46.71-19.19
			c-20.2,0-35.85,6.57-46.96,19.7c-11.11,13.13-16.67,30.8-16.67,53.02v4.04c0,21.55,5.72,38.81,17.17,51.76
			C1466.79,790.52,1481.77,796.99,1500.29,796.99z"/>
		<path d="M1686.98,863.65V599.54h73.22v50.5c16.83-36.02,45.28-54.2,85.34-54.54v68.17c-28.28-0.33-49.58,4.8-63.88,15.4
			c-14.31,10.6-21.46,28.03-21.46,52.27v132.31H1686.98z"/>
		<path d="M1949.03,869.21c-25.93,0-47.14-6.56-63.63-19.69c-16.5-13.13-24.75-32.83-24.75-59.08c0-56.56,45.78-84.84,137.36-84.84
			h29.8v-10.6c0-16.49-3.2-28.7-9.6-36.61c-6.4-7.91-17.51-11.87-33.33-11.87c-26.6,0-41.58,12.46-44.95,37.37h-69.18
			c2.02-29.96,13.8-52.52,35.35-67.67c21.54-15.15,49.32-22.72,83.32-22.72c73.73,0,110.6,32.66,110.6,97.97v172.21h-71.2v-31.82
			C2010.97,856.76,1984.38,869.21,1949.03,869.21z M1970.74,818.2c16.49,0,30.13-4.21,40.91-12.62
			c10.77-8.41,16.16-19.86,16.16-34.34v-22.22h-28.28c-22.22,0-38.97,2.86-50.25,8.58c-11.28,5.73-16.92,15.32-16.92,28.79
			C1932.36,807.6,1945.15,818.2,1970.74,818.2z"/>
		<path d="M2250.46,869.21c-33.33,0-60.77-11.69-82.32-35.1c-21.55-23.4-32.32-56.31-32.32-98.73v-4.04
			c0-42.42,10.86-76,32.57-100.75c21.72-24.75,49.57-37.12,83.58-37.12c39.05,0,66.83,15.15,83.33,45.45V479.86h72.72v383.8h-72.72
			v-43.93c-7.07,14.14-18.35,25.93-33.84,35.35C2285.98,864.49,2268.97,869.21,2250.46,869.21z M2272.18,812.15
			c19.86,0,35.68-6.73,47.47-20.2c11.78-13.46,17.68-33.16,17.68-59.08v-4.04c0-25.92-5.48-45.62-16.41-59.08
			c-10.95-13.46-26.51-20.2-46.71-20.2c-20.54,0-36.28,6.82-47.22,20.45c-10.94,13.64-16.41,33.58-16.41,59.84v4.04
			c0,25.59,5.56,45.03,16.67,58.33C2238.34,805.5,2253.32,812.15,2272.18,812.15z"/>
	</g>
	<g>
		<path d="M500.36,485.34L375.14,602.69c-17.03,15.96-43.53,15.96-60.56,0L189.36,485.34c-13.79-13.79-37.38-4.02-37.38,15.48
			v203.11c0,91.26,86.36,165.23,192.88,165.23c106.52,0,192.88-73.98,192.88-165.23V500.82
			C537.74,481.31,514.16,471.54,500.36,485.34z"/>
	</g>
</g>
</svg>
